<?xml version="1.0" encoding="UTF-8"?>
<svg version="1.1" xmlns="http://www.w3.org/2000/svg" width="100" height="100">
<path d="M0 0 C2.4570023 0.16023928 4.60081557 0.49382558 7 1 C8.00933594 1.21011719 9.01867187 1.42023437 10.05859375 1.63671875 C18.73721122 3.60581683 18.73721122 3.60581683 21 7 C21.59423828 8.99291992 21.59423828 8.99291992 22.0703125 11.23046875 C22.24433594 12.03291016 22.41835937 12.83535156 22.59765625 13.66210938 C22.77167969 14.49548828 22.94570312 15.32886719 23.125 16.1875 C23.30675781 17.03248047 23.48851562 17.87746094 23.67578125 18.74804688 C24.12292753 20.8308072 24.56222376 22.91525006 25 25 C24.30132812 25.60328125 23.60265625 26.2065625 22.8828125 26.828125 C21.97273438 27.62734375 21.06265625 28.4265625 20.125 29.25 C19.22007813 30.03890625 18.31515625 30.8278125 17.3828125 31.640625 C15.25560007 33.74691403 14.09487694 35.25651526 13 38 C13.66257813 38.39832031 14.32515625 38.79664063 15.0078125 39.20703125 C17 41 17 41 17.2421875 43.19921875 C16.85756541 45.80564717 16.44932598 48.40389436 16 51 C15.91298828 52.15242188 15.91298828 52.15242188 15.82421875 53.328125 C15.5625 55.4375 15.5625 55.4375 14 59 C10.76867117 60.59155002 7.53529566 61.37382217 4 62 C4.495 63.8253125 4.495 63.8253125 5 65.6875 C5.86463083 68.8758262 6.46864267 71.70370438 6 75 C4.05859375 76.74609375 4.05859375 76.74609375 1.4375 78.4375 C-5.21518602 83.34894245 -7.85510294 89.58554072 -11 97 C-23.25506101 98.35980814 -23.25506101 98.35980814 -27.30078125 95.20703125 C-29.69465365 91.79619157 -30.97516929 89.19187426 -31.0625 85 C-30.711875 84.01 -30.36125 83.02 -30 82 C-29.62488281 80.82824219 -29.62488281 80.82824219 -29.2421875 79.6328125 C-28.52912923 77.41056295 -27.76801211 75.20386083 -27 73 C-24.03 73 -21.06 73 -18 73 C-18 71.35 -18 69.7 -18 68 C-19.0725 68.515625 -20.145 69.03125 -21.25 69.5625 C-23.36274861 70.57824452 -24.56278294 71.05286026 -26.90625 70.76953125 C-31.58383149 69.05034552 -35.5812348 66.64242274 -39 63 C-39.98057021 59.17857781 -39.61030475 55.86349443 -39 52 C-38.96003906 50.82566406 -38.92007813 49.65132812 -38.87890625 48.44140625 C-38 45 -38 45 -35.015625 42.49609375 C-33.77463484 41.78450471 -32.51853779 41.09873174 -31.25 40.4375 C-30.62867188 40.07076172 -30.00734375 39.70402344 -29.3671875 39.32617188 C-26.37211834 37.68014758 -24.63651309 36.84879419 -21.25390625 37.65234375 C-18.43139724 39.33997912 -15.69699284 41.11837709 -13 43 C-12.731875 41.865625 -12.46375 40.73125 -12.1875 39.5625 C-11.795625 38.386875 -11.40375 37.21125 -11 36 C-9.515 35.505 -9.515 35.505 -8 35 C-8.433125 33.9275 -8.86625 32.855 -9.3125 31.75 C-14.15009181 18.7880315 -14.15009181 18.7880315 -13.91796875 12.9296875 C-12.4868348 9.92126123 -10.16832915 8.4013795 -7.5625 6.375 C-3.64826276 3.33716128 -3.64826276 3.33716128 0 0 Z " fill="#48B798" transform="translate(58,1)"/>
<path d="M0 0 C0.763125 0.45246094 1.52625 0.90492187 2.3125 1.37109375 C3.03953125 1.77328125 3.7665625 2.17546875 4.515625 2.58984375 C5.19109375 3.01265625 5.8665625 3.43546875 6.5625 3.87109375 C7.24828125 4.29390625 7.9340625 4.71671875 8.640625 5.15234375 C10.3125 6.37109375 10.3125 6.37109375 11.3125 8.37109375 C11.5400015 10.24166166 11.72212811 12.11795333 11.875 13.99609375 C12.00068359 15.50042969 12.00068359 15.50042969 12.12890625 17.03515625 C12.18949219 17.80601563 12.25007813 18.576875 12.3125 19.37109375 C11.6525 19.37109375 10.9925 19.37109375 10.3125 19.37109375 C10.415625 20.29921875 10.51875 21.22734375 10.625 22.18359375 C10.521875 23.23546875 10.41875 24.28734375 10.3125 25.37109375 C7.92357499 27.25708718 6.39398442 28.37109375 3.3125 28.37109375 C3.3125 29.03109375 3.3125 29.69109375 3.3125 30.37109375 C-3.08021679 33.44451529 -3.08021679 33.44451529 -5.59375 33.140625 C-10.27133149 31.42143927 -14.2687348 29.01351649 -17.6875 25.37109375 C-18.66807021 21.54967156 -18.29780475 18.23458818 -17.6875 14.37109375 C-17.64753906 13.19675781 -17.60757812 12.02242187 -17.56640625 10.8125 C-16.6875 7.37109375 -16.6875 7.37109375 -13.703125 4.8671875 C-12.46213484 4.15559846 -11.20603779 3.46982549 -9.9375 2.80859375 C-9.31617188 2.44185547 -8.69484375 2.07511719 -8.0546875 1.69726562 C-5.09974142 0.07329209 -3.34139561 -0.78192543 0 0 Z " fill="#E73D8C" transform="translate(36.6875,38.62890625)"/>
<path d="M0 0 C6.47062671 0.42199739 12.747229 2.36750314 19 4 C17.47707549 7.88608324 15.10431788 9.69230664 11.875 12.25 C7.77511311 15.77764054 7.77511311 15.77764054 6.25 20.875 C6.49677139 22.85885075 6.49677139 22.85885075 7 25 C7.15984375 25.97195312 7.3196875 26.94390625 7.484375 27.9453125 C7.93973541 30.64297795 8.44836608 33.32063525 9 36 C8.41089844 35.49984375 7.82179688 34.9996875 7.21484375 34.484375 C4.9660286 32.64796627 4.9660286 32.64796627 1.5625 33.25 C-0.56473635 33.69783923 -2.6903999 34.1534222 -4.8125 34.625 C-7 35 -7 35 -9 34 C-10.17854699 30.98742892 -10.88249274 27.81808378 -11.6875 24.6875 C-11.92533203 23.81931641 -12.16316406 22.95113281 -12.40820312 22.05664062 C-12.62798828 21.21681641 -12.84777344 20.37699219 -13.07421875 19.51171875 C-13.27619873 18.74303467 -13.47817871 17.97435059 -13.6862793 17.18237305 C-14.03606848 14.74909247 -13.87386268 13.29073425 -13 11 C-10.56640625 8.7109375 -10.56640625 8.7109375 -7.5625 6.375 C-3.64826276 3.33716128 -3.64826276 3.33716128 0 0 Z " fill="#18509B" transform="translate(58,1)"/>
<path d="M0 0 C11.57823129 -0.41187384 11.57823129 -0.41187384 16 2 C18.42642952 4.43738406 20.55002372 6.86872827 22 10 C21.7232525 13.79023746 20.33065556 16.56015584 18.4375 19.8125 C17.98246094 20.60269531 17.52742188 21.39289063 17.05859375 22.20703125 C16.70925781 22.79871094 16.35992187 23.39039062 16 24 C3.74493899 25.35980814 3.74493899 25.35980814 -0.30078125 22.20703125 C-2.69465365 18.79619157 -3.97516929 16.19187426 -4.0625 12 C-3.711875 11.01 -3.36125 10.02 -3 9 C-2.74992187 8.21882813 -2.49984375 7.43765625 -2.2421875 6.6328125 C-1.52846322 4.40848733 -0.77819301 2.20243304 0 0 Z " fill="#4BB799" transform="translate(31,74)"/>
<path d="M0 0 C-0.26480274 3.01038908 -0.62404916 6.00167604 -1 9 C-1.05285156 9.75023437 -1.10570313 10.50046875 -1.16015625 11.2734375 C-1.4375 13.375 -1.4375 13.375 -3 17 C-6.22945774 18.59598409 -9.46460923 19.37380533 -13 20 C-12.67 21.2375 -12.34 22.475 -12 23.75 C-11.20108841 26.74591845 -11 28.80107719 -11 32 C-12.60597325 31.54803755 -14.20972508 31.08817673 -15.8125 30.625 C-17.15248047 30.24214844 -17.15248047 30.24214844 -18.51953125 29.8515625 C-21 29 -21 29 -24 27 C-24.29296875 24.6171875 -24.29296875 24.6171875 -24.1875 21.875 C-24.16042969 20.96492188 -24.13335937 20.05484375 -24.10546875 19.1171875 C-24.07066406 18.41851562 -24.03585938 17.71984375 -24 17 C-21.03 18.98 -21.03 18.98 -18 21 C-17.93941406 20.18015625 -17.87882812 19.3603125 -17.81640625 18.515625 C-17.73261719 17.43796875 -17.64882813 16.3603125 -17.5625 15.25 C-17.48128906 14.18265625 -17.40007813 13.1153125 -17.31640625 12.015625 C-17.21199219 11.02046875 -17.10757813 10.0253125 -17 9 C-16.96648438 8.2678125 -16.93296875 7.535625 -16.8984375 6.78125 C-15.60639024 4.21962586 -13.64509298 3.76799661 -11.03320312 2.87109375 C-10.38287109 2.66613281 -9.73253906 2.46117187 -9.0625 2.25 C-8.09280273 1.91935547 -8.09280273 1.91935547 -7.10351562 1.58203125 C-2.3721613 0 -2.3721613 0 0 0 Z " fill="#A3D5CF" transform="translate(75,43)"/>
<path d="M0 0 C2.22950991 2.22950991 2.43601702 3.13048055 3.0703125 6.1328125 C3.24433594 6.93847656 3.41835937 7.74414062 3.59765625 8.57421875 C3.77167969 9.41597656 3.94570312 10.25773437 4.125 11.125 C4.30675781 11.97449219 4.48851563 12.82398438 4.67578125 13.69921875 C5.12385016 15.79806785 5.56279337 17.89886134 6 20 C5.31292969 20.61488281 4.62585938 21.22976562 3.91796875 21.86328125 C2.56638672 23.07564453 2.56638672 23.07564453 1.1875 24.3125 C0.29417969 25.11300781 -0.59914063 25.91351562 -1.51953125 26.73828125 C-3.39926786 28.45224581 -5.22592747 30.17877604 -7 32 C-7.99 31.67 -8.98 31.34 -10 31 C-10.94921875 28.77734375 -10.94921875 28.77734375 -11.6875 25.9375 C-11.93886719 25.01839844 -12.19023438 24.09929688 -12.44921875 23.15234375 C-14.11684095 13.60786777 -14.11684095 13.60786777 -11.77612305 10.23803711 C-10.09658623 8.533187 -8.35488818 7.01167602 -6.5 5.5 C-5.87996094 4.96375 -5.25992188 4.4275 -4.62109375 3.875 C-3.09810697 2.56288831 -1.55128455 1.27853122 0 0 Z " fill="#49A7DE" transform="translate(77,6)"/>
<path d="M0 0 C16.01730464 2.38941273 16.01730464 2.38941273 19.26123047 6.66064453 C21.55473955 11.74387335 22.78087791 17.65736627 21 23 C20.649375 22.484375 20.29875 21.96875 19.9375 21.4375 C17.94800983 19.63421487 17.94800983 19.63421487 14.625 20.25 C12.47627187 20.69456444 10.32948446 21.14900345 8.1875 21.625 C6 22 6 22 4 21 C3.18896339 18.59945004 2.50164678 16.26106426 1.875 13.8125 C1.60236328 12.8215332 1.60236328 12.8215332 1.32421875 11.81054688 C0.26698109 7.78429971 -0.1938984 4.15588903 0 0 Z " fill="#20274F" transform="translate(45,14)"/>
<path d="M0 0 C1.32 0.33 2.64 0.66 4 1 C4 4.63 4 8.26 4 12 C4.845625 12.268125 5.69125 12.53625 6.5625 12.8125 C10.13854067 14.0478595 13.53860908 15.476988 17 17 C13.83047153 20.26008643 10.60062011 23.22237877 7 26 C3.81229117 24.86153256 2.96880926 23.95009482 1.125 21 C-1.34319375 17.51549117 -2.91734219 16.92787677 -7 16 C-7 13.69 -7 11.38 -7 9 C-5.5459375 8.443125 -5.5459375 8.443125 -4.0625 7.875 C-0.68859031 6.28947638 -0.68859031 6.28947638 -0.125 2.8125 C-0.08375 1.884375 -0.0425 0.95625 0 0 Z " fill="#20264E" transform="translate(47,58)"/>
<path d="M0 0 C0.02753831 1.5207267 0.04663375 3.04160674 0.0625 4.5625 C0.07410156 5.40941406 0.08570312 6.25632812 0.09765625 7.12890625 C0.06542969 8.07636719 0.03320312 9.02382813 0 10 C-0.0103125 11.175625 -0.020625 12.35125 -0.03125 13.5625 C-1.07775799 17.27591545 -1.28073949 17.58621729 -4.37890625 19.43359375 C-5.76059264 20.12774242 -7.15598659 20.7951452 -8.5625 21.4375 C-9.27341797 21.78748047 -9.98433594 22.13746094 -10.71679688 22.49804688 C-12.46663203 23.35534866 -14.23197089 24.18087701 -16 25 C-16.02753831 23.4792733 -16.04663375 21.95839326 -16.0625 20.4375 C-16.07410156 19.59058594 -16.08570312 18.74367188 -16.09765625 17.87109375 C-16.06542969 16.92363281 -16.03320312 15.97617187 -16 15 C-15.97808594 13.824375 -15.95617187 12.64875 -15.93359375 11.4375 C-15 8 -15 8 -11.875 5.56640625 C-10.59673653 4.87313319 -9.30421582 4.20562217 -8 3.5625 C-7.34515625 3.21251953 -6.6903125 2.86253906 -6.015625 2.50195312 C-1.27611301 0 -1.27611301 0 0 0 Z " fill="#DE96C0" transform="translate(35,38)"/>
<path d="M0 0 C1.72932943 0.98876953 3.45865885 1.97753906 5.18798828 2.96630859 C6.74816518 3.85633675 8.31130287 4.74117119 9.875 5.625 C12 7 12 7 13 9 C13.2275015 10.87056791 13.40962811 12.74685958 13.5625 14.625 C13.64628906 15.62789062 13.73007812 16.63078125 13.81640625 17.6640625 C13.87699219 18.43492188 13.93757813 19.20578125 14 20 C13.34 20 12.68 20 12 20 C12 21.98 12 23.96 12 26 C11.43925781 25.71125 10.87851562 25.4225 10.30078125 25.125 C8.01920965 23.95985973 8.01920965 23.95985973 5.60546875 23.125 C2.57021882 21.71279971 0.99395483 20.73085117 -1 18 C-1.90497994 12.04933004 -0.84817291 5.90625515 0 0 Z " fill="#E52C65" transform="translate(35,38)"/>
<path d="M0 0 C2.66666667 2 5.33333333 4 8 6 C8.74121094 6.43957031 9.48242188 6.87914062 10.24609375 7.33203125 C12 9 12 9 12.42578125 11.7421875 C12.38839844 12.77601562 12.35101563 13.80984375 12.3125 14.875 C12.28800781 15.90367188 12.26351562 16.93234375 12.23828125 17.9921875 C12.02064122 20.73944685 11.60921006 23.31551339 11 26 C6.9335027 24.49388989 4.09030076 21.74676551 2 18 C1.48502324 15.62471959 1.25614159 13.37897336 1.140625 10.953125 C1.11919066 8.92019263 1.11919066 8.92019263 0 7 C-0.04022391 4.6670134 -0.04320247 2.33293334 0 0 Z " fill="#1EA865" transform="translate(46,38)"/>
<path d="M0 0 C4.75647668 2.02590674 4.75647668 2.02590674 7 4 C8.18339741 6.95087509 8.66988062 9.84702306 9 13 C2.43946188 17.27713004 2.43946188 17.27713004 -1.08984375 16.59765625 C-3 15.75 -3 15.75 -6 14 C-6.33 11.03 -6.66 8.06 -7 5 C-4.69 3.35 -2.38 1.7 0 0 Z " fill="#EFA320" transform="translate(74,61)"/>
<path d="M0 0 C-1.41292095 4.8274799 -3.42974154 8.7162359 -6 13 C-10.62 13 -15.24 13 -20 13 C-18.35 9.04 -16.7 5.08 -15 1 C-4.95535714 -0.07142857 -4.95535714 -0.07142857 0 0 Z " fill="#22A866" transform="translate(53,85)"/>
<path d="M0 0 C10.63432836 -0.42537313 10.63432836 -0.42537313 15 2 C17.26745525 4.85125982 19.17318959 7.85166716 21 11 C15.87403116 11.5282487 11.10814393 11.80598718 6 11 C2.93468739 8.45840914 1.35104047 5.72376329 0 2 C0 1.34 0 0.68 0 0 Z " fill="#A7D7D2" transform="translate(32,74)"/>
<path d="M0 0 C1.32 0.33 2.64 0.66 4 1 C4 4.63 4 8.26 4 12 C4.66 12.33 5.32 12.66 6 13 C4.824375 13.680625 4.824375 13.680625 3.625 14.375 C0.96301969 15.88428742 0.96301969 15.88428742 -1 18 C-2.98 17.34 -4.96 16.68 -7 16 C-7 13.69 -7 11.38 -7 9 C-5.5459375 8.443125 -5.5459375 8.443125 -4.0625 7.875 C-0.68859031 6.28947638 -0.68859031 6.28947638 -0.125 2.8125 C-0.08375 1.884375 -0.0425 0.95625 0 0 Z " fill="#1A509C" transform="translate(47,58)"/>
<path d="M0 0 C0.59296875 0.49113281 1.1859375 0.98226562 1.796875 1.48828125 C4.65286208 3.44797452 6.61022171 3.23112125 10 3 C10.50833591 4.24663331 11.00631145 5.49749387 11.5 6.75 C11.7784375 7.44609375 12.056875 8.1421875 12.34375 8.859375 C13 11 13 11 13 15 C11.39402675 14.54803755 9.79027492 14.08817673 8.1875 13.625 C7.29417969 13.36976562 6.40085937 13.11453125 5.48046875 12.8515625 C3 12 3 12 0 10 C-0.29296875 7.6171875 -0.29296875 7.6171875 -0.1875 4.875 C-0.16042969 3.96492188 -0.13335937 3.05484375 -0.10546875 2.1171875 C-0.07066406 1.41851562 -0.03585938 0.71984375 0 0 Z " fill="#49A5DC" transform="translate(51,60)"/>
<path d="M0 0 C0.886875 0.556875 1.77375 1.11375 2.6875 1.6875 C2.6875 3.9975 2.6875 6.3075 2.6875 8.6875 C0.22356281 10.23886786 -0.99339146 10.71789129 -3.9375 10.4375 C-6.3125 9.6875 -6.3125 9.6875 -8.3125 7.6875 C-8.75 4.75 -8.75 4.75 -8.3125 1.6875 C-5.16232987 -1.37001807 -4.12595502 -1.63481237 0 0 Z " fill="#E21E23" transform="translate(41.3125,23.3125)"/>
<path d="M0 0 C3.04311974 0.49347888 6.01697727 1.22662374 9 2 C9 2.66 9 3.32 9 4 C2.43946188 8.27713004 2.43946188 8.27713004 -1.08984375 7.59765625 C-3 6.75 -3 6.75 -6 5 C-5.195625 4.360625 -4.39125 3.72125 -3.5625 3.0625 C-1.7249496 1.59396498 -1.7249496 1.59396498 0 0 Z " fill="#D48313" transform="translate(74,70)"/>
<path d="M0 0 C6.50739958 3.01268499 6.50739958 3.01268499 7.91015625 5.82421875 C8.4375 7.75 8.4375 7.75 9 11 C8.01 11.495 8.01 11.495 7 12 C4.0625 10.5 4.0625 10.5 1 8 C0.16104266 5.23513429 0.09752026 2.92560787 0 0 Z " fill="#FBC62B" transform="translate(74,61)"/>
<path d="M0 0 C2.75 0.8125 2.75 0.8125 5 2 C4.67 2.99 4.34 3.98 4 5 C1.6875 5.6875 1.6875 5.6875 -1 6 C-2.8125 4.5625 -2.8125 4.5625 -4 3 C-2.3125 1.375 -2.3125 1.375 0 0 Z " fill="#EC6964" transform="translate(38,22)"/>
<path d="M0 0 C0 2.31 0 4.62 0 7 C-1.65 7.66 -3.3 8.32 -5 9 C-5.33 7.02 -5.66 5.04 -6 3 C-1.125 0 -1.125 0 0 0 Z " fill="#E63D32" transform="translate(44,25)"/>
<path d="M0 0 C0.33 1.32 0.66 2.64 1 4 C2.65 4 4.3 4 6 4 C3.35261084 5.4606285 2.10551666 6 -1 6 C-1.042721 4.33388095 -1.04063832 2.66617115 -1 1 C-0.67 0.67 -0.34 0.34 0 0 Z " fill="#9BCEC6" transform="translate(58,58)"/>
<path d="M0 0 C0.66 0.33 1.32 0.66 2 1 C2.40729228 3.32156597 2.74438677 5.6568787 3 8 C1.68 7.01 0.36 6.02 -1 5 C-0.67 3.35 -0.34 1.7 0 0 Z " fill="#233358" transform="translate(64,29)"/>
</svg>
